<svg xmlns="http://www.w3.org/2000/svg" width="36" height="25.067" viewBox="0 0 36 25.067">
  <path id="cloud" d="M0,16.457a8.31,8.31,0,0,1,1.868-5.329A8.312,8.312,0,0,1,6.612,8.123a10.194,10.194,0,0,1,3.655-5.84A10.122,10.122,0,0,1,16.782,0a10,10,0,0,1,6.393,2.226,10.143,10.143,0,0,1,3.646,5.7h.569a8.581,8.581,0,0,1,4.321,1.129A8.455,8.455,0,0,1,36,16.457a8.6,8.6,0,0,1-4.1,7.367,8.274,8.274,0,0,1-4.183,1.243H8.318a8.5,8.5,0,0,1-5.9-2.648A8.248,8.248,0,0,1,0,16.457Zm2.957,0A5.534,5.534,0,0,0,4.525,20.38a5.424,5.424,0,0,0,3.793,1.779h19.4a5.449,5.449,0,0,0,3.8-1.779,5.525,5.525,0,0,0,1.576-3.923,5.349,5.349,0,0,0-1.69-3.94,5.517,5.517,0,0,0-4.012-1.665H24.58q-.292,0-.292-.309l-.13-.991a7.1,7.1,0,0,0-2.421-4.711,7.209,7.209,0,0,0-4.955-1.9,7.14,7.14,0,0,0-4.947,1.9,7.078,7.078,0,0,0-2.38,4.711l-.13.991q0,.309-.341.309h-.91A5.737,5.737,0,0,0,4.427,12.7,5.35,5.35,0,0,0,2.957,16.457Z"/>
</svg>
