<svg xmlns="http://www.w3.org/2000/svg" width="36" height="23.606" viewBox="0 0 36 23.606">
  <path id="cloudy" d="M0,16.694A6.67,6.67,0,0,1,1.5,12.4,6.7,6.7,0,0,1,5.362,9.995,8,8,0,0,1,8.248,5.324a8.091,8.091,0,0,1,5.21-1.815,8.084,8.084,0,0,1,5.127,1.77,8,8,0,0,1,2.924,4.534h.441a6.885,6.885,0,0,1,6.9,6.881,6.673,6.673,0,0,1-2.02,4.884,6.626,6.626,0,0,1-4.876,2.028H6.911a6.772,6.772,0,0,1-2.681-.547A6.774,6.774,0,0,1,.547,19.375,6.767,6.767,0,0,1,0,16.694Zm2.354,0a4.328,4.328,0,0,0,1.337,3.182A4.4,4.4,0,0,0,6.911,21.2H21.949a4.4,4.4,0,0,0,3.22-1.329,4.447,4.447,0,0,0,0-6.357,4.416,4.416,0,0,0-3.22-1.322H19.7a.215.215,0,0,1-.243-.243l-.106-.79a5.889,5.889,0,0,0-5.894-5.316A5.779,5.779,0,0,0,9.471,7.367a5.629,5.629,0,0,0-1.906,3.8l-.106.684q0,.243-.258.243l-.729.106A4.363,4.363,0,0,0,3.54,13.641a4.365,4.365,0,0,0-1.185,3.053ZM16.693,2.567q-.243.228.122.334a13.221,13.221,0,0,1,1.747.9q.273.076.365-.046a4.978,4.978,0,0,1,6.828-.083,4.818,4.818,0,0,1,1.6,3.243l.152,1.033H29.8a3.723,3.723,0,0,1,2.719,1.132,3.67,3.67,0,0,1,1.139,2.7,3.6,3.6,0,0,1-1,2.537,3.873,3.873,0,0,1-2.476,1.246q-.243,0-.243.258v1.838q0,.258.243.258a6.02,6.02,0,0,0,4.132-1.929A5.908,5.908,0,0,0,36,11.772,5.971,5.971,0,0,0,34.185,7.39,5.971,5.971,0,0,0,29.8,5.575H29.56a7.291,7.291,0,0,0-2.666-4,7.446,7.446,0,0,0-10.2.995Z"/>
</svg>
