<svg xmlns="http://www.w3.org/2000/svg" width="35.457" height="36" viewBox="0 0 35.457 36">
  <path id="day-lightning" d="M0,21.145a6.267,6.267,0,0,0,1.835,4.523,6.45,6.45,0,0,0,4.48,2.015.2.2,0,0,0,.222-.222v-1.8q0-.235-.222-.235a4.34,4.34,0,0,1-2.892-1.366,4.075,4.075,0,0,1-1.174-2.911,4.153,4.153,0,0,1,1.118-2.886A4.06,4.06,0,0,1,6.13,16.894l.692-.1q.26,0,.26-.222l.074-.667a5.361,5.361,0,0,1,1.811-3.578,5.461,5.461,0,0,1,3.775-1.44,5.615,5.615,0,0,1,5.586,5.018l.087.766q0,.222.247.222h2.113a4.2,4.2,0,0,1,3.059,1.248,4.193,4.193,0,0,1,.093,5.913,4.347,4.347,0,0,1-2.893,1.366q-.26,0-.26.235v1.8q0,.222.26.222a6.236,6.236,0,0,0,4.455-1.99,6.345,6.345,0,0,0,1.823-4.548,6.718,6.718,0,0,0-.618-2.731,6.5,6.5,0,0,0,1.57-4.313,6.734,6.734,0,0,0-.55-2.688,6.8,6.8,0,0,0-3.683-3.676,6.745,6.745,0,0,0-2.676-.544,6.614,6.614,0,0,0-5.116,2.286,7.966,7.966,0,0,0-3.5-.816A7.74,7.74,0,0,0,7.78,10.38a7.627,7.627,0,0,0-2.762,4.438,6.338,6.338,0,0,0-3.6,2.28A6.3,6.3,0,0,0,0,21.145ZM9.887,36h.4l7.007-10.344a.156.156,0,0,0,.031-.179.179.179,0,0,0-.179-.093h-2.88l3.028-5.549q.148-.284-.185-.284H13.223a.346.346,0,0,0-.284.185L10.1,27.275q-.049.272.185.272h2.855ZM11.049,4.919a1.108,1.108,0,0,0,.321.816l.865.853a1.165,1.165,0,0,0,1.594,0,1.218,1.218,0,0,0,.321-.84,1.063,1.063,0,0,0-.321-.779l-.84-.853a1.194,1.194,0,0,0-.816-.334,1.081,1.081,0,0,0-.791.334,1.1,1.1,0,0,0-.334.8Zm7.044,5.833a4.625,4.625,0,0,1,6.55.025A4.549,4.549,0,0,1,26,14.1a4.824,4.824,0,0,1-.667,2.385,6.359,6.359,0,0,0-4.56-1.854h-.408a7.621,7.621,0,0,0-2.274-3.881Zm2.138-6.97a1.119,1.119,0,0,0,.315.816,1.079,1.079,0,0,0,.809.321,1.046,1.046,0,0,0,.779-.315,1.124,1.124,0,0,0,.309-.822V1.088A1.057,1.057,0,0,0,21.355,0a1.118,1.118,0,0,0-.8.309,1.026,1.026,0,0,0-.327.779V3.782ZM27.5,6.835a1.047,1.047,0,0,0,.358.791,1.073,1.073,0,0,0,.729.334,1.588,1.588,0,0,0,.816-.334l1.9-1.891a1.177,1.177,0,0,0,.334-.828,1.079,1.079,0,0,0-.327-.8,1.1,1.1,0,0,0-.8-.321,1.051,1.051,0,0,0-.766.334L27.857,6.008a1.194,1.194,0,0,0-.358.828Zm1.075,15.584a1.144,1.144,0,0,0,.321.8l.853.865a1.046,1.046,0,0,0,.766.321,1.073,1.073,0,0,0,.8-.334,1.137,1.137,0,0,0,.327-.828.988.988,0,0,0-.334-.754l-.816-.865a1.247,1.247,0,0,0-.816-.309,1.1,1.1,0,0,0-1.1,1.1ZM30.489,14.1a1,1,0,0,0,.346.754,1.081,1.081,0,0,0,.791.334H34.32a1.127,1.127,0,0,0,.8-.315,1.025,1.025,0,0,0,.334-.772,1.083,1.083,0,0,0-.34-.8,1.106,1.106,0,0,0-.8-.334H31.626a1.1,1.1,0,0,0-.8.334,1.085,1.085,0,0,0-.34.8Z"/>
</svg>
