<svg xmlns="http://www.w3.org/2000/svg" width="42.735" height="33.315" viewBox="0 0 42.735 33.315">
  <path id="day-cloudy" d="M0,25.431a7.868,7.868,0,0,0,3.906,6.834,7.683,7.683,0,0,0,3.935,1.051H25.058a7.86,7.86,0,0,0,7.886-7.885,8.142,8.142,0,0,0-.671-3.176,8.048,8.048,0,0,0,1.819-5.263,8.412,8.412,0,0,0-2.431-5.9A8.377,8.377,0,0,0,29,9.317a8.166,8.166,0,0,0-3.242-.655,8.259,8.259,0,0,0-6.171,2.773,8.583,8.583,0,0,0-4.293-1.043A9.445,9.445,0,0,0,6.052,17.8,7.781,7.781,0,0,0,0,25.431Zm2.713,0a4.9,4.9,0,0,1,1.334-3.444A5.247,5.247,0,0,1,7.393,20.3l.791-.045q.3,0,.3-.284l.1-.864a6.818,6.818,0,0,1,2.237-4.315,6.427,6.427,0,0,1,4.471-1.736A6.626,6.626,0,0,1,19.863,14.8a6.4,6.4,0,0,1,2.184,4.308l.119.925a.306.306,0,0,0,.328.268h2.564A5.193,5.193,0,0,1,30.2,25.432a5.051,5.051,0,0,1-1.514,3.69,4.923,4.923,0,0,1-3.629,1.527H7.841A4.894,4.894,0,0,1,4.233,29.1,5.054,5.054,0,0,1,2.713,25.431ZM13.371,5.918a1.416,1.416,0,0,0,.387,1L14.8,7.93a1.53,1.53,0,0,0,1.014.4,1.185,1.185,0,0,0,.88-.41,1.384,1.384,0,0,0,.387-.991,1.18,1.18,0,0,0-.418-.939l-.939-1.043a1.416,1.416,0,0,0-.969-.387,1.351,1.351,0,0,0-.984.4A1.292,1.292,0,0,0,13.371,5.918Zm8.5,7.036A5.622,5.622,0,0,1,29.759,13a5.428,5.428,0,0,1,1.648,3.995,5.892,5.892,0,0,1-.8,2.922,7.612,7.612,0,0,0-5.545-2.28H24.55a9.6,9.6,0,0,0-2.683-4.681Zm2.578-8.392a1.33,1.33,0,0,0,.373.984,1.273,1.273,0,0,0,.939.373,1.281,1.281,0,0,0,1.357-1.357V1.312a1.261,1.261,0,0,0-.38-.939A1.335,1.335,0,0,0,25.758,0a1.275,1.275,0,0,0-1.312,1.312V4.561Zm8.78,3.652a1.363,1.363,0,0,0,.357.984,1.635,1.635,0,0,0,.984.387,1.59,1.59,0,0,0,.939-.387l2.28-2.28A1.471,1.471,0,0,0,38.173,5.9a1.3,1.3,0,0,0-.387-.954,1.272,1.272,0,0,0-.939-.387,1.2,1.2,0,0,0-.925.387l-2.34,2.28a1.5,1.5,0,0,0-.357.984Zm1.267,18.812a1.421,1.421,0,0,0,.4,1l1.028,1a1.2,1.2,0,0,0,.925.387,1.256,1.256,0,0,0,.946-.4,1.38,1.38,0,0,0,.38-.991,1.265,1.265,0,0,0-.387-.925L36.758,26.07a1.245,1.245,0,0,0-.909-.387,1.323,1.323,0,0,0-.962.387,1.283,1.283,0,0,0-.4.954Zm2.326-10.032a1.189,1.189,0,0,0,.418.925,1.314,1.314,0,0,0,.969.387h3.249a1.228,1.228,0,0,0,.916-.373,1.293,1.293,0,0,0,.366-.939,1.358,1.358,0,0,0-.366-.962,1.2,1.2,0,0,0-.916-.4H38.2a1.344,1.344,0,0,0-.976.4,1.293,1.293,0,0,0-.41.954Z" transform="translate(0)"/>
</svg>
