<svg xmlns="http://www.w3.org/2000/svg" width="35.999" height="36" viewBox="0 0 35.999 36">
  <path id="day-sunny" d="M0,17.992a1.426,1.426,0,0,1,.429-1.048,1.452,1.452,0,0,1,1.016-.413H4.907a1.263,1.263,0,0,1,.977.429,1.483,1.483,0,0,1,.389,1.032,1.454,1.454,0,0,1-.389,1.024,1.274,1.274,0,0,1-.977.421H1.445a1.387,1.387,0,0,1-1.016-.429A1.394,1.394,0,0,1,0,17.992ZM4.843,29.727a1.5,1.5,0,0,1,.4-1.032l2.493-2.414a1.323,1.323,0,0,1,1-.4,1.414,1.414,0,0,1,1.008.381,1.272,1.272,0,0,1,.4.969,1.567,1.567,0,0,1-.413,1.08L7.319,30.728a1.538,1.538,0,0,1-2.08,0,1.426,1.426,0,0,1-.4-1Zm0-23.455a1.5,1.5,0,0,1,.4-1.032,1.643,1.643,0,0,1,1.08-.413,1.431,1.431,0,0,1,1,.413L9.734,7.733a1.3,1.3,0,0,1,.413,1,1.385,1.385,0,0,1-1.413,1.414,1.3,1.3,0,0,1-1-.413L5.24,7.321a1.486,1.486,0,0,1-.4-1.048ZM9.162,17.991a8.6,8.6,0,0,1,1.191-4.407,8.825,8.825,0,0,1,3.232-3.23,8.621,8.621,0,0,1,4.407-1.191,8.514,8.514,0,0,1,3.414.707,8.987,8.987,0,0,1,2.819,1.89,8.843,8.843,0,0,1,1.882,2.818,8.768,8.768,0,0,1-.484,7.829,8.747,8.747,0,0,1-3.216,3.215,8.83,8.83,0,0,1-8.83,0,8.82,8.82,0,0,1-3.223-3.215,8.587,8.587,0,0,1-1.191-4.415Zm2.874,0a5.794,5.794,0,0,0,1.739,4.232,5.72,5.72,0,0,0,4.217,1.756,5.992,5.992,0,0,0,5.987-5.987,5.65,5.65,0,0,0-1.755-4.176,5.813,5.813,0,0,0-4.232-1.731,5.762,5.762,0,0,0-4.208,1.731,5.665,5.665,0,0,0-1.747,4.176Zm4.51,13.165a1.368,1.368,0,0,1,.421-1.016,1.486,1.486,0,0,1,2.056,0,1.381,1.381,0,0,1,.413,1.016v3.367a1.44,1.44,0,0,1-.421,1.048,1.437,1.437,0,0,1-2.048,0,1.44,1.44,0,0,1-.421-1.048Zm0-26.25V1.445A1.387,1.387,0,0,1,16.975.429a1.418,1.418,0,0,1,2.032,0,1.391,1.391,0,0,1,.429,1.016V4.907a1.274,1.274,0,0,1-.421.977,1.541,1.541,0,0,1-2.047,0,1.27,1.27,0,0,1-.421-.977ZM25.9,27.233a1.328,1.328,0,0,1,1.334-1.35,1.376,1.376,0,0,1,1.016.4l2.477,2.414a1.471,1.471,0,0,1,.413,1.032,1.362,1.362,0,0,1-.413,1,1.5,1.5,0,0,1-2.033,0l-2.414-2.414a1.566,1.566,0,0,1-.381-1.08Zm0-18.5a1.319,1.319,0,0,1,.381-1L28.694,5.24a1.433,1.433,0,0,1,1-.413,1.381,1.381,0,0,1,1.024.429,1.4,1.4,0,0,1,.421,1.016,1.42,1.42,0,0,1-.413,1.048L28.249,9.734a1.49,1.49,0,0,1-1.016.413,1.254,1.254,0,0,1-.953-.4A1.414,1.414,0,0,1,25.9,8.734Zm3.827,9.258a1.49,1.49,0,0,1,.413-1.048,1.327,1.327,0,0,1,.969-.413h3.43A1.493,1.493,0,0,1,36,17.991a1.371,1.371,0,0,1-.437,1.016,1.417,1.417,0,0,1-1.024.429h-3.43a1.3,1.3,0,0,1-.985-.421,1.438,1.438,0,0,1-.4-1.024Z"/>
</svg>
