<svg xmlns="http://www.w3.org/2000/svg" width="36" height="25.545" viewBox="0 0 36 25.545">
  <path id="fog" d="M0,19.833a1.178,1.178,0,0,1,.368-.886,1.266,1.266,0,0,1,.913-.354h27.14a1.192,1.192,0,0,1,1.241,1.241,1.116,1.116,0,0,1-.361.845,1.233,1.233,0,0,1-.879.341H1.281a1.292,1.292,0,0,1-.913-.341A1.106,1.106,0,0,1,0,19.834Zm3.8-4.566a1.115,1.115,0,0,1,.382-.872,1.161,1.161,0,0,1,.859-.327H32.2a1.136,1.136,0,0,1,.845.348,1.171,1.171,0,0,1,.341.852,1.233,1.233,0,0,1-.341.879,1.116,1.116,0,0,1-.845.361H5.044a1.185,1.185,0,0,1-.879-.368,1.2,1.2,0,0,1-.361-.872Zm.191-3.462q0,.191.218.191H6.3q.136,0,.286-.232A4.541,4.541,0,0,1,8.131,9.91a4.459,4.459,0,0,1,2.256-.818l.8-.109q.245,0,.245-.259l.1-.722a5.867,5.867,0,0,1,2-3.933,6.219,6.219,0,0,1,8.248-.02,5.85,5.85,0,0,1,2,3.9l.109.832q0,.245.286.245h2.317a4.661,4.661,0,0,1,4.267,2.74q.15.232.3.232h2.086q.259,0,.2-.327a6.793,6.793,0,0,0-2.535-3.653A7.03,7.03,0,0,0,26.486,6.6h-.463a8.536,8.536,0,0,0-3.047-4.75A8.308,8.308,0,0,0,17.666,0a8.4,8.4,0,0,0-5.425,1.915A8.51,8.51,0,0,0,9.2,6.8a7.144,7.144,0,0,0-5.193,4.921v-.055a.465.465,0,0,0-.014.136ZM6.339,24.291a1.1,1.1,0,0,1,.382-.859,1.179,1.179,0,0,1,.872-.327H34.76a1.233,1.233,0,0,1,.879.341,1.116,1.116,0,0,1,.361.845,1.208,1.208,0,0,1-.368.886,1.192,1.192,0,0,1-.872.368H7.593a1.281,1.281,0,0,1-1.254-1.254Z"/>
</svg>
