<svg xmlns="http://www.w3.org/2000/svg" width="20.883" height="20.952" viewBox="0 0 20.883 20.952">
  <path id="forecast-io-clear-night" d="M0,10.476A10.187,10.187,0,0,1,.83,6.421,10.544,10.544,0,0,1,3.065,3.08,10.62,10.62,0,0,1,6.414.838,10.163,10.163,0,0,1,10.476,0h1.688a.408.408,0,0,1,.346.415l.069,1.3A6.9,6.9,0,0,0,14.6,6.5a6.735,6.735,0,0,0,4.705,2.09l1.218.1q.36,0,.36.346v1.439a10.407,10.407,0,0,1-5.169,9.071,10.2,10.2,0,0,1-5.238,1.405,10.563,10.563,0,0,1-7.439-3.065A10.564,10.564,0,0,1,.823,14.545,10.3,10.3,0,0,1,0,10.476Zm2.7,0a7.868,7.868,0,0,0,2.429,5.688,8.374,8.374,0,0,0,2.491,1.6,7.328,7.328,0,0,0,2.857.588,7.16,7.16,0,0,0,2.6-.505A9.012,9.012,0,0,0,15.5,16.433a8.149,8.149,0,0,0,1.931-2.318,8.529,8.529,0,0,0,1.045-3.086,10.586,10.586,0,0,1-5.791-3.093,9.336,9.336,0,0,1-2.513-5.514A7.4,7.4,0,0,0,6.345,3.709,8.175,8.175,0,0,0,3.653,6.691,7.984,7.984,0,0,0,2.7,10.476Z"/>
</svg>
