<svg xmlns="http://www.w3.org/2000/svg" width="35.999" height="27.33" viewBox="0 0 35.999 27.33">
  <path id="night-alt-cloudy" d="M0,19.126a7.971,7.971,0,0,1,1.763-5.1,7.809,7.809,0,0,1,4.545-2.843A9.692,9.692,0,0,1,8.631,6.7a9.989,9.989,0,0,1,7.388-3.27,9.949,9.949,0,0,1,3.9.792,8.891,8.891,0,0,1,1.639-2.02A7.592,7.592,0,0,1,23.5.893,10.151,10.151,0,0,1,25.45.218,8.378,8.378,0,0,1,27.314,0a8.647,8.647,0,0,1,2.035.264L30.7.684q.342.14.233.373l-.233.994A6.687,6.687,0,0,0,30.53,3.48a5.368,5.368,0,0,0,.241,1.569A6.4,6.4,0,0,0,31.493,6.6a5.16,5.16,0,0,0,1.321,1.383,6.26,6.26,0,0,0,1.911.948l1.025.357q.249.062.249.264a.25.25,0,0,1-.031.109l-.295,1.119a8.206,8.206,0,0,1-2.486,4.257,8.023,8.023,0,0,1,1.072,3.713,3.178,3.178,0,0,1,.016.373,8,8,0,0,1-1.1,4.11,8.2,8.2,0,0,1-2.991,2.991,8,8,0,0,1-4.11,1.1H8.157a7.962,7.962,0,0,1-4.1-1.1A8.192,8.192,0,0,1,0,19.126Zm2.828,0a5.276,5.276,0,0,0,1.585,3.822,5.072,5.072,0,0,0,3.744,1.616H26.072a5.123,5.123,0,0,0,3.783-1.6,5.273,5.273,0,0,0,1.577-3.838,5.111,5.111,0,0,0-1.585-3.752A5.168,5.168,0,0,0,26.072,13.8H23.12l-.171-1.243a6.74,6.74,0,0,0-2.082-4.3A6.877,6.877,0,0,0,16.5,6.277q-.078,0-.241-.016t-.241-.016a7.239,7.239,0,0,0-2.548.482V6.7a7.207,7.207,0,0,0-4.537,5.858l-.109,1.2L7.691,13.8a5.435,5.435,0,0,0-3.48,1.756,5.114,5.114,0,0,0-1.383,3.574ZM22.3,5.686a9.321,9.321,0,0,1,3.263,5.267h.528a7.54,7.54,0,0,1,5.252,1.958A5.406,5.406,0,0,0,32.6,11.14a8.123,8.123,0,0,1-3.574-3.263,8.869,8.869,0,0,1-1.305-4.615v-.4a3.555,3.555,0,0,0-.4-.016,5.507,5.507,0,0,0-2.812.722A5.89,5.89,0,0,0,22.3,5.687Z"/>
</svg>
