<svg xmlns="http://www.w3.org/2000/svg" width="36" height="34.827" viewBox="0 0 36 34.827">
  <path id="owm-314" d="M0,16.445a8.292,8.292,0,0,1,1.872-5.332,8.35,8.35,0,0,1,4.739-3A10.175,10.175,0,0,1,10.275,2.28,10.145,10.145,0,0,1,16.787,0a10.021,10.021,0,0,1,6.391,2.223,10.134,10.134,0,0,1,3.655,5.706h.554A8.569,8.569,0,0,1,31.7,9.061a8.42,8.42,0,0,1,3.142,3.094A8.312,8.312,0,0,1,36,16.445a8.634,8.634,0,0,1-4.1,7.376,8.271,8.271,0,0,1-4.168,1.237q-.342,0-.342-.293V22.453q0-.309.342-.309a5.434,5.434,0,0,0,3.786-1.775,5.515,5.515,0,0,0,1.571-3.924,5.347,5.347,0,0,0-1.693-3.932,5.513,5.513,0,0,0-4.006-1.669h-2.8q-.309,0-.309-.293l-.13-1.009a7.1,7.1,0,0,0-2.418-4.714,7.192,7.192,0,0,0-4.942-1.9,7.174,7.174,0,0,0-4.958,1.9A7,7,0,0,0,9.46,9.541l-.13.928q0,.326-.342.326l-.912.049A5.738,5.738,0,0,0,4.437,12.7a5.345,5.345,0,0,0-1.474,3.745,5.536,5.536,0,0,0,1.563,3.924A5.419,5.419,0,0,0,8.32,22.144q.293,0,.293.309v2.312a.259.259,0,0,1-.293.293,8.5,8.5,0,0,1-5.9-2.654A8.255,8.255,0,0,1,0,16.445ZM9.3,28.054a1.384,1.384,0,0,1,.065-.342L12.195,17.7a1.385,1.385,0,0,1,.562-.765,1.471,1.471,0,0,1,.806-.261,2.191,2.191,0,0,1,.423.049,1.326,1.326,0,0,1,.936.635,1.4,1.4,0,0,1,.138,1.156L12.227,28.46a1.38,1.38,0,0,1-1.433,1.107.6.6,0,0,1-.195-.033.908.908,0,0,0-.179-.049,1.452,1.452,0,0,1-.847-.578,1.521,1.521,0,0,1-.277-.855Zm4.559,4.885L18.089,17.7a1.174,1.174,0,0,1,.521-.765,1.558,1.558,0,0,1,.847-.261,2.4,2.4,0,0,1,.472.049,1.344,1.344,0,0,1,.847.676,1.461,1.461,0,0,1,.114,1.115L16.673,33.769a1.278,1.278,0,0,1-.5.749,1.425,1.425,0,0,1-.879.309,1.142,1.142,0,0,1-.44-.081,1.541,1.541,0,0,1-.9-.684,1.316,1.316,0,0,1-.1-1.123ZM21.02,28.1a2.288,2.288,0,0,1,.065-.391L23.918,17.7a1.34,1.34,0,0,1,.529-.765,1.415,1.415,0,0,1,.806-.261,2.323,2.323,0,0,1,.456.049,1.378,1.378,0,0,1,.806.537,1.413,1.413,0,0,1,.269.814,1.235,1.235,0,0,1-.033.236,1.27,1.27,0,0,0-.033.2L23.885,28.46a1.293,1.293,0,0,1-.488.806,1.4,1.4,0,0,1-.879.3l-.423-.081a1.369,1.369,0,0,1-.8-.562,1.476,1.476,0,0,1-.277-.822Z"/>
</svg>
