<svg xmlns="http://www.w3.org/2000/svg" width="36" height="34.714" viewBox="0 0 36 34.714">
  <path id="owm-621" d="M0,16.51a8.386,8.386,0,0,1,1.848-5.349A8.485,8.485,0,0,1,6.611,8.109,10.192,10.192,0,0,1,10.266,2.28,10.134,10.134,0,0,1,16.787,0a10.021,10.021,0,0,1,6.391,2.223,10.134,10.134,0,0,1,3.655,5.706h.554A8.574,8.574,0,0,1,36,16.51a8.25,8.25,0,0,1-2.41,5.943,8.252,8.252,0,0,1-5.862,2.6q-.342,0-.342-.293V22.453q0-.309.342-.309a5.713,5.713,0,0,0,5.357-5.634,5.726,5.726,0,0,0-5.7-5.666h-2.8q-.309,0-.309-.293l-.13-1.009A7.132,7.132,0,0,0,21.728,4.82a7.174,7.174,0,0,0-4.941-1.9,7.142,7.142,0,0,0-4.974,1.921A7.189,7.189,0,0,0,9.427,9.607l-.1.863q0,.326-.342.326l-.912.114a5.353,5.353,0,0,0-3.639,1.8,5.592,5.592,0,0,0,.1,7.668A5.444,5.444,0,0,0,8.32,22.144q.293,0,.293.309v2.312a.259.259,0,0,1-.293.293,8.314,8.314,0,0,1-5.9-2.6A8.236,8.236,0,0,1,0,16.51Zm11.056,7.066a1.391,1.391,0,0,1,.415-1.009,1.436,1.436,0,0,1,2.036,0,1.391,1.391,0,0,1,.415,1.009,1.457,1.457,0,0,1-.415,1.05,1.418,1.418,0,0,1-2.037,0,1.461,1.461,0,0,1-.414-1.05Zm0,6.3a1.416,1.416,0,0,1,.423-1.042,1.487,1.487,0,0,1,2.027.016,1.476,1.476,0,0,1,0,2.052,1.477,1.477,0,0,1-2.036,0,1.382,1.382,0,0,1-.415-1.026Zm5.536-2.947a1.536,1.536,0,0,1,.44-1.075,1.359,1.359,0,0,1,.993-.423,1.531,1.531,0,0,1,1.5,1.5,1.4,1.4,0,0,1-.44,1.034,1.452,1.452,0,0,1-1.058.431,1.365,1.365,0,0,1-1.009-.431,1.424,1.424,0,0,1-.423-1.034Zm0-6.285a1.474,1.474,0,0,1,1.433-1.465,1.456,1.456,0,0,1,1.058.431,1.4,1.4,0,0,1,.44,1.034,1.34,1.34,0,0,1-.44,1.018,1.489,1.489,0,0,1-1.058.415,1.391,1.391,0,0,1-1.009-.415,1.371,1.371,0,0,1-.423-1.018Zm0,12.635a1.514,1.514,0,0,1,.44-1.058,1.359,1.359,0,0,1,.993-.423,1.5,1.5,0,0,1,1.5,1.482,1.342,1.342,0,0,1-.44,1.018,1.484,1.484,0,0,1-1.058.415,1.391,1.391,0,0,1-1.009-.415,1.371,1.371,0,0,1-.423-1.018Zm5.6-9.7a1.36,1.36,0,0,1,.44-1,1.439,1.439,0,0,1,1.042-.431,1.431,1.431,0,0,1,1.433,1.432,1.457,1.457,0,0,1-.415,1.05,1.363,1.363,0,0,1-1.019.432,1.414,1.414,0,0,1-1.05-.44,1.439,1.439,0,0,1-.431-1.042Zm0,6.3a1.5,1.5,0,0,1,.44-1.042,1.478,1.478,0,0,1,1.042-.391,1.433,1.433,0,1,1,0,2.866,1.457,1.457,0,0,1-1.05-.415,1.358,1.358,0,0,1-.431-1.018Z"/>
</svg>
