<svg xmlns="http://www.w3.org/2000/svg" width="36" height="35.641" viewBox="0 0 36 35.641">
  <path id="owm-310" d="M0,16.525a8.21,8.21,0,0,0,2.428,5.932,8.318,8.318,0,0,0,5.883,2.608q.31,0,.31-.293V22.458a.274.274,0,0,0-.31-.31A5.463,5.463,0,0,1,4.53,20.38a5.4,5.4,0,0,1-1.58-3.855A5.472,5.472,0,0,1,4.425,12.72a5.363,5.363,0,0,1,3.642-1.8l.913-.13q.326,0,.326-.31l.13-.864A7.126,7.126,0,0,1,11.807,4.84a7.149,7.149,0,0,1,4.979-1.923,7.152,7.152,0,0,1,4.938,1.907,7.2,7.2,0,0,1,2.428,4.71l.114,1.01q0,.31.326.31h2.787a5.733,5.733,0,0,1,5.7,5.672,5.719,5.719,0,0,1-5.362,5.622q-.342,0-.342.31v2.314q0,.293.342.293A8.545,8.545,0,0,0,36,16.525a8.4,8.4,0,0,0-1.157-4.311,8.614,8.614,0,0,0-7.464-4.278h-.538a10.242,10.242,0,0,0-3.667-5.712A10,10,0,0,0,16.786,0a10.147,10.147,0,0,0-6.519,2.282A10.1,10.1,0,0,0,6.617,8.1a8.668,8.668,0,0,0-4.775,3.072A8.37,8.37,0,0,0,0,16.525ZM9.4,28.731a1.608,1.608,0,0,0,.285.88,1.442,1.442,0,0,0,.823.6,1.491,1.491,0,0,0,1.108-.065,1.359,1.359,0,0,0,.684-.978l.244-1.059a1.494,1.494,0,0,0-.163-1.1,1.472,1.472,0,0,0-.9-.693,1.346,1.346,0,0,0-1.116.13,1.463,1.463,0,0,0-.693.929L9.435,28.4a1.132,1.132,0,0,0-.033.326Zm1.32-5.036a1.372,1.372,0,0,0,.44.994,1.286,1.286,0,0,0,.978.44,1.432,1.432,0,0,0,1.043-.416,1.436,1.436,0,0,0,0-2.038,1.432,1.432,0,0,0-1.043-.416,1.371,1.371,0,0,0-1.01.407,1.392,1.392,0,0,0-.407,1.027Zm1.059-3.96a1.183,1.183,0,0,0,.236.79,1.554,1.554,0,0,0,.84.563,1.372,1.372,0,0,0,1.076-.122,1.419,1.419,0,0,0,.717-.888l.489-1.565a1.316,1.316,0,0,0-.114-1.133,1.562,1.562,0,0,0-.945-.676,1.35,1.35,0,0,0-1.1.114,1.451,1.451,0,0,0-.709.864l-.424,1.6a1.27,1.27,0,0,1-.033.2,1.269,1.269,0,0,0-.033.253ZM13.8,34.158a1.544,1.544,0,0,0,.269.864,1.423,1.423,0,0,0,.839.57,1.948,1.948,0,0,0,.44.049,1.274,1.274,0,0,0,1.369-1.059l.244-1.027a1.534,1.534,0,0,0-.147-1.19,1.3,1.3,0,0,0-.913-.636,1.32,1.32,0,0,0-1.092.122,1.476,1.476,0,0,0-.717.888l-.244,1.027a1.905,1.905,0,0,0-.049.391Zm1.353-5.052a1.389,1.389,0,0,0,.44,1.01,1.361,1.361,0,0,0,.994.424,1.392,1.392,0,0,0,1.434-1.434,1.371,1.371,0,0,0-.407-1.01,1.5,1.5,0,0,0-2.054,0,1.371,1.371,0,0,0-.407,1.01Zm1.092-3.944a1.335,1.335,0,0,0,.228.815,1.115,1.115,0,0,0,.782.522,1.488,1.488,0,0,0,1.108-.1,1.508,1.508,0,0,0,.717-.978l.473-1.565a1.312,1.312,0,0,0-.122-1.092,1.5,1.5,0,0,0-.921-.7,1.316,1.316,0,0,0-1.108.139,1.543,1.543,0,0,0-.717.921L16.3,24.69a2.1,2.1,0,0,0-.049.473Zm4.791,3.732a1.491,1.491,0,0,0,.269.831,1.419,1.419,0,0,0,.807.57,1.235,1.235,0,0,1,.236.033,1.235,1.235,0,0,0,.236.033,1.271,1.271,0,0,0,1.32-1.141l.244-1.043a1.338,1.338,0,0,0-.114-1.092,1.446,1.446,0,0,0-.88-.717,1.546,1.546,0,0,0-1.182.139,1.484,1.484,0,0,0-.707.921L21.1,28.455a1.107,1.107,0,0,1-.033.212,1.12,1.12,0,0,0-.033.228Zm1.287-5.134a1.478,1.478,0,0,0,1.434,1.418,1.394,1.394,0,0,0,1.027-.407,1.366,1.366,0,0,0,.407-1.01,1.434,1.434,0,1,0-2.868,0Zm1.059-4.025a1.421,1.421,0,0,0,.285.839,1.52,1.52,0,0,0,.856.562,1.414,1.414,0,0,1,.212.033,1.357,1.357,0,0,0,.244.033,1.541,1.541,0,0,0,.619-.163,1.386,1.386,0,0,0,.717-.913l.424-1.565a1.387,1.387,0,0,0-.13-1.1,1.47,1.47,0,0,0-.88-.693,1.394,1.394,0,0,0-1.108.1,1.414,1.414,0,0,0-.684.88l-.489,1.581a.994.994,0,0,1-.033.2A.994.994,0,0,0,23.385,19.735Z"/>
</svg>
